<?xml version="1.0" encoding="UTF-8"?>
<svg width="206px" height="29px" viewBox="0 0 206 29" version="1.1" xmlns="http://www.w3.org/2000/svg" xmlns:xlink="http://www.w3.org/1999/xlink">
    <title>9CDEB7C3-3B9A-461B-A92E-4C9B83FCE215@2x</title>
    <g id="Page-1" stroke="none" stroke-width="1" fill="none" fill-rule="evenodd">
        <g id="Home" transform="translate(-370.000000, -16.000000)" fill="#3D4199">
            <g id="logo-grendene-copy-5" transform="translate(370.000000, 16.000000)">
                <path d="M192.618048,17.0416713 C192.582687,16.3071622 192.323032,15.6893461 191.846157,15.2013573 C191.016172,14.3536914 189.50573,13.8864143 187.592167,13.8864143 C184.092388,13.8864143 181.252354,15.1675113 180.492081,17.0416713 L192.618048,17.0416713 Z M184.730916,28.23662 C180.169787,28.23662 176.704864,27.0489785 174.97417,24.8924316 C173.840076,23.4779712 173.485451,21.6755445 173.920397,19.5351629 C175.0651,13.9015692 180.384481,10.4017901 187.801811,10.4017901 C191.67137,10.4017901 194.426537,11.4909246 196.224922,13.731834 C197.474194,15.2892559 198.01573,18.386419 197.432265,20.6364213 L197.380233,20.8379819 L179.952061,20.8344458 C179.854564,21.910446 180.156147,22.7858959 180.891667,23.5749627 C181.952512,24.7115827 183.219969,24.915164 185.492199,24.9232466 L185.492199,24.9232466 C187.057703,24.9232466 188.378708,24.5959 189.453698,23.9502999 C189.795695,23.7452032 189.919965,23.4815073 190.026555,23.2066979 L190.092731,23.0354471 L196.528021,23.0354471 L196.155715,23.4769609 C195.934958,23.738636 195.396453,24.2897704 195.194387,24.497393 L195.153974,24.5383113 C191.992655,27.7567138 187.266842,28.23662 184.730916,28.23662 L184.730916,28.23662 Z" id="Fill-1"></path>
                <path d="M148.699457,27.6340599 L152.070925,11.2657223 L158.572896,11.2657223 L158.236962,12.8761865 C159.643845,11.4450557 161.362414,10.2038667 165.441112,10.2038667 C165.538608,10.2038667 165.637621,10.2043718 165.737643,10.2058873 C168.30792,10.244785 170.690275,11.1550913 171.807194,12.5256024 C172.657891,13.5697772 172.881678,15.1105287 172.471485,17.1049179 L170.30635,27.6290083 L163.801853,27.6290083 L165.403224,19.8641259 C165.417874,19.7832996 165.730066,18.1152467 165.760376,17.97178 C166.018009,16.7437253 165.882625,15.7945213 165.35978,15.1509419 C164.664169,14.2946882 163.409845,14.1148496 162.479333,14.1148496 C159.286693,14.1148496 157.696941,15.5080931 156.991731,18.9230046 L155.201934,27.6340599 L148.699457,27.6340599 Z" id="Fill-3"></path>
                <path d="M143.502882,17.0416713 C143.46752,16.3071622 143.207866,15.6893461 142.73099,15.2013573 C141.901005,14.3536914 140.390564,13.8864143 138.477001,13.8864143 C134.977222,13.8864143 132.137187,15.1675113 131.376915,17.0416713 L143.502882,17.0416713 Z M135.615749,28.23662 C131.05462,28.23662 127.589697,27.0489785 125.859509,24.8924316 C124.72592,23.4784763 124.370789,21.6760497 124.804726,19.5351629 C125.949933,13.9015692 131.269315,10.4017901 138.686644,10.4017901 C142.556203,10.4017901 145.31137,11.4909246 147.109756,13.731834 C148.359532,15.2897611 148.901069,18.3869241 148.317099,20.6369265 L148.264561,20.8379819 L130.837399,20.8344458 C130.739397,21.910446 131.04098,22.7864011 131.777005,23.5749627 C132.837345,24.7115827 134.104803,24.915164 136.376527,24.9232466 L136.377032,24.9232466 C137.942537,24.9232466 139.263542,24.5959 140.338532,23.9502999 C140.681538,23.744698 140.804798,23.4815073 140.910883,23.207203 L140.977565,23.0354471 L147.412854,23.0354471 L147.040548,23.4769609 C146.819791,23.738636 146.281286,24.2897704 146.07922,24.497393 L146.038807,24.5383113 C142.877488,27.7567138 138.151675,28.23662 135.615749,28.23662 L135.615749,28.23662 Z" id="Fill-5"></path>
                <path d="M111.816292,14.4103203 C107.960372,14.4103203 105.111244,16.3031714 104.556574,19.2331251 C104.3146,20.5116962 104.648514,21.9413115 105.408281,22.8758657 C106.045798,23.6558396 107.58655,24.489866 109.997195,24.489866 L110.12096,24.4888557 C113.698029,24.4484426 116.200109,22.6419746 116.813378,19.656958 C117.076569,18.3859643 116.801254,17.1710439 116.039466,16.2364897 C114.998322,14.9564031 113.735411,14.4103203 111.816292,14.4103203 M106.49489,28.241217 C103.462388,28.241217 101.093672,27.3006009 99.6463755,25.5209066 C98.3945781,23.9867223 97.7848447,21.4189715 98.1970588,19.4149842 C99.282152,14.1557174 104.077678,10.6220923 110.130558,10.6220923 C112.630617,10.6220923 115.471661,10.839313 117.811583,13.3262375 L118.159641,11.8046822 L120.585946,0 L127.084381,0 L121.395725,27.6340094 L114.894764,27.6340094 L115.217059,26.0679997 C114.14712,26.8651491 111.613216,28.2371757 106.842948,28.2371757 C106.730296,28.2397015 106.612593,28.241217 106.49489,28.241217" id="Fill-7"></path>
                <path d="M73.1611606,27.6340599 L76.5321228,11.2657223 L83.034094,11.2657223 L82.7284696,12.7306991 C84.3328718,11.1550913 86.1752064,10.2038667 89.8826081,10.2038667 C89.9861668,10.2038667 90.0922513,10.2043718 90.198841,10.2058873 C92.7696228,10.244785 95.1519782,11.1550913 96.2688967,12.5256024 C97.1195936,13.5702824 97.3433815,15.1105287 96.9336931,17.1049179 L94.7675481,27.6290083 L88.2610303,27.6290083 L89.793194,20.4587045 C89.82704,20.2768453 90.122056,18.7007323 90.1498401,18.5683792 C90.4190927,17.2822306 90.2594608,16.2653346 89.6754907,15.5464856 C89.0970774,14.8347089 88.075635,14.4265361 86.8733436,14.4265361 C83.9115646,14.4371445 82.0136619,16.0996407 81.3660411,19.2341859 L79.663637,27.6340599 L73.1611606,27.6340599 Z" id="Fill-9"></path>
                <path d="M33.5478336,27.6046593 L36.9107132,11.2686523 L43.4030863,11.2686523 L42.8686224,13.805588 C43.8733944,12.671999 45.9102173,10.9610071 49.0493091,10.9610071 C49.6317636,10.9610071 50.2354351,11.0201114 50.8446634,11.1368043 L51.1093696,11.1873208 L50.2495797,15.572148 L49.8989956,15.5681067 C49.8989956,15.5681067 49.3918105,15.5726531 49.2559213,15.5726531 C44.7927936,15.5726531 42.0947105,17.6827249 41.2354258,21.8442694 L40.0386913,27.6046593 L33.5478336,27.6046593 Z" id="Fill-11"></path>
                <path d="M14.5027813,28.5216843 C8.78432,28.5216843 4.57882618,26.9193028 2.00349796,23.7594993 C0.203091954,21.5504153 -0.400074366,18.6937105 0.259670369,15.4975352 C1.96965194,7.1810133 9.7739371,1.80707417 20.1409214,1.80707417 C20.3313684,1.80707417 20.5228257,1.80909483 20.7147882,1.81263098 C27.6320046,1.94548922 31.8390139,4.20256386 33.5757692,8.71216666 L33.6874105,9.00213104 L26.0159836,10.7424225 L25.9381883,10.5130778 C25.2355046,8.42927459 23.5048113,5.94487596 19.2533475,5.94487596 L19.061385,5.94689661 C12.6346832,6.05803279 8.74239135,10.7995061 7.8457245,15.1570544 C7.33045679,17.6667112 7.8300644,20.0106741 9.25260742,21.7570275 C10.3765983,23.1310748 12.0284859,24.5364422 15.7560942,24.5364422 C20.2126547,24.5364422 23.4093352,22.5642803 24.5272641,19.1261312 L25.0667797,17.6111431 L17.9384045,17.6111431 L18.7668741,13.7951311 L34.2895665,13.7951311 L34.2021731,14.1315706 C33.1408226,18.2188559 31.4343772,21.1942744 28.8317701,23.4958035 C24.9733242,26.8778793 20.2864087,28.5216843 14.5027813,28.5216843" id="Fill-13"></path>
                <path d="M68.3150172,17.0416713 C68.2791506,16.3071622 68.0200012,15.6893461 67.5426208,15.2013573 C66.7131408,14.3536914 65.2021941,13.8864143 63.2891364,13.8864143 C59.7898624,13.8864143 56.949828,15.1675113 56.1885453,17.0416713 L68.3150172,17.0416713 Z M60.4278851,28.23662 C55.8667555,28.23662 52.4018328,27.0489785 50.6711394,24.8924316 C49.5375505,23.4789815 49.1824199,21.6765548 49.6168613,19.5351629 C50.762069,13.9015692 56.0814504,10.4017901 63.4987796,10.4017901 C67.3678339,10.4017901 70.1235059,11.4909246 71.9218912,13.731834 C73.1711628,15.2892559 73.7126991,18.386419 73.1292342,20.6364213 L73.0772022,20.8379819 L55.6485245,20.8344458 C55.5510278,21.9099408 55.8531161,22.7858959 56.5886355,23.5749627 C57.6494808,24.7115827 58.9169383,24.915164 61.1886627,24.9232466 L61.1886627,24.9232466 C62.7541673,24.9232466 64.0751722,24.5959 65.1511724,23.9502999 C65.4926636,23.7452032 65.6164289,23.4815073 65.7230186,23.2066979 L65.7897003,23.0354471 L72.2249899,23.0354471 L71.8521785,23.4769609 C71.6511231,23.7159036 71.2010216,24.1796446 70.8802422,24.5080014 L70.8504375,24.5388165 C67.6891185,27.7567138 62.9633053,28.23662 60.4278851,28.23662 L60.4278851,28.23662 Z" id="Fill-15"></path>
                <path d="M201.913831,9.75265382 L201.913831,9.75265382 C201.75622,9.81630454 201.521319,9.84661441 201.207106,9.84661441 L200.537763,9.84661441 L200.537763,8.31647137 L201.170229,8.31647137 C201.583959,8.31647137 201.882006,8.36951363 202.070937,8.47357751 C202.256333,8.57915687 202.350293,8.78475879 202.350293,9.09341425 C202.350293,9.41772981 202.206322,9.63697117 201.913831,9.75265382 M203.020141,11.7611876 C203.011048,11.6490411 203.010038,11.5454824 203.010038,11.4469753 L203.010038,11.138825 C203.010038,10.9221095 202.931233,10.7048888 202.778673,10.4826164 C202.624598,10.2603441 202.380098,10.1209187 202.050226,10.0673713 C202.313416,10.0254426 202.517503,9.95724541 202.665011,9.86328483 C202.938305,9.68597212 203.07672,9.40762652 203.07672,9.02925837 C203.07672,8.49984606 202.861015,8.14218964 202.424047,7.96134078 C202.178538,7.86131823 201.793602,7.80726563 201.270757,7.80726563 L199.790625,7.80726563 L199.790625,12.0324609 L200.537763,12.0324609 L200.537763,10.3654183 L201.123754,10.3654183 C201.518288,10.3654183 201.793602,10.4118934 201.952224,10.502823 C202.216425,10.6579085 202.350293,10.9847498 202.350293,11.4702129 L202.350293,11.8081679 L202.364943,11.9455726 C202.368985,11.962243 202.372521,11.9773979 202.374036,11.9885116 C202.379088,12.005182 202.380098,12.0193266 202.380098,12.0193266 L203.080761,12.0324609 L203.057018,11.9804289 C203.039843,11.9455726 203.027719,11.8733341 203.020141,11.7611876" id="Fill-17"></path>
                <path d="M203.6861,12.2901957 L203.6861,12.2901957 C203.043531,12.9398372 202.259515,13.2641528 201.342642,13.2641528 C200.423243,13.2641528 199.642259,12.9398372 199.0007,12.2901957 C198.359646,11.6410595 198.043918,10.8540133 198.043918,9.93158306 C198.043918,9.01622513 198.360656,8.23625126 199.006256,7.59014596 C199.651857,6.93898902 200.432336,6.6141683 201.342642,6.6141683 C202.257495,6.6141683 203.039994,6.93898902 203.6861,7.59014596 C204.329174,8.23625126 204.651469,9.01622513 204.651469,9.93158306 C204.651469,10.8540133 204.329174,11.6410595 203.6861,12.2901957 M204.067499,7.2148088 C203.317835,6.46868095 202.409044,6.09536444 201.342642,6.09536444 C200.283312,6.09536444 199.381594,6.46868095 198.63395,7.2148088 C197.883276,7.96851412 197.508444,8.87225327 197.508444,9.93158306 C197.508444,11.0015213 197.877719,11.9118276 198.624857,12.6614916 C199.372501,13.4146918 200.278766,13.7935651 201.342642,13.7935651 C202.409044,13.7935651 203.317835,13.4146918 204.067499,12.6614916 C204.823225,11.9072811 205.195531,10.9964697 205.195531,9.93158306 C205.195531,8.86922228 204.823225,7.96497796 204.067499,7.2148088" id="Fill-19"></path>
            </g>
        </g>
    </g>
</svg>